<?xml version="1.0" encoding="UTF-8" standalone="no"?>
<!DOCTYPE svg PUBLIC "-//W3C//DTD SVG 1.1//EN" "http://www.w3.org/Graphics/SVG/1.1/DTD/svg11.dtd">
<svg width="100%" height="100%" viewBox="0 0 110 110" version="1.1" xmlns="http://www.w3.org/2000/svg" xmlns:xlink="http://www.w3.org/1999/xlink" xml:space="preserve" xmlns:serif="http://www.serif.com/" style="fill-rule:evenodd;clip-rule:evenodd;stroke-linecap:round;stroke-linejoin:round;stroke-miterlimit:1.5;">
    <g id="Layer17">
        <g transform="matrix(0.680074,0.680074,-0.680074,0.680074,48.2472,-21.0013)">
            <path d="M60.93,50.949L81.269,30.609L86.388,29.084" style="fill:rgb(85,44,36);stroke:rgb(31,31,31);stroke-width:4.76px;"/>
        </g>
        <g transform="matrix(-0.680074,-0.680074,-0.680074,0.680074,131.096,61.8473)">
            <path d="M60.93,50.949L81.269,30.609L86.388,29.084" style="fill:rgb(85,44,36);stroke:rgb(31,31,31);stroke-width:4.76px;"/>
        </g>
        <g transform="matrix(0.248924,0.928999,-0.928999,0.248924,87.1994,-14.2016)">
            <path d="M60.93,50.949L84.416,27.462" style="fill:none;stroke:rgb(31,31,31);stroke-width:4.76px;"/>
        </g>
        <g transform="matrix(-0.248924,0.928999,-0.928999,-0.248924,117.533,11.1632)">
            <path d="M60.93,50.949L84.416,27.462" style="fill:none;stroke:rgb(31,31,31);stroke-width:4.76px;"/>
        </g>
        <g transform="matrix(0.680074,0.680074,0.680074,-0.680074,-21.063,48.2843)">
            <path d="M60.93,50.949L81.269,30.609L86.388,29.084" style="fill:rgb(85,44,36);stroke:rgb(31,31,31);stroke-width:4.76px;"/>
        </g>
        <g transform="matrix(-0.680074,-0.680074,0.680074,-0.680074,61.7856,131.133)">
            <path d="M60.93,50.949L81.269,30.609L86.388,29.084" style="fill:rgb(85,44,36);stroke:rgb(31,31,31);stroke-width:4.76px;"/>
        </g>
        <g transform="matrix(-0.248924,-0.928999,0.928999,-0.248924,22.8705,124.37)">
            <path d="M60.93,50.949L84.416,27.462" style="fill:none;stroke:rgb(31,31,31);stroke-width:4.76px;"/>
        </g>
        <g transform="matrix(0.248924,-0.928999,0.928999,0.248924,-7.46325,99.0054)">
            <path d="M60.93,50.949L84.416,27.462" style="fill:none;stroke:rgb(31,31,31);stroke-width:4.76px;"/>
        </g>
        <g transform="matrix(1,0,0,1,0.034919,0.0843018)">
            <path d="M68.529,52.294L68.529,57.706C68.529,63.679 63.679,68.529 57.706,68.529L52.294,68.529C46.321,68.529 41.471,63.679 41.471,57.706L41.471,52.294C41.471,46.321 46.321,41.471 52.294,41.471L57.706,41.471C63.679,41.471 68.529,46.321 68.529,52.294Z" style="fill:rgb(153,153,153);"/>
            <clipPath id="_clip1">
                <path d="M68.529,52.294L68.529,57.706C68.529,63.679 63.679,68.529 57.706,68.529L52.294,68.529C46.321,68.529 41.471,63.679 41.471,57.706L41.471,52.294C41.471,46.321 46.321,41.471 52.294,41.471L57.706,41.471C63.679,41.471 68.529,46.321 68.529,52.294Z"/>
            </clipPath>
            <g clip-path="url(#_clip1)">
                <path d="M41.471,41.471L68.529,68.529" style="fill:none;stroke:rgb(124,124,124);stroke-width:1.85px;"/>
            </g>
            <path d="M68.529,52.294L68.529,57.706C68.529,63.679 63.679,68.529 57.706,68.529L52.294,68.529C46.321,68.529 41.471,63.679 41.471,57.706L41.471,52.294C41.471,46.321 46.321,41.471 52.294,41.471L57.706,41.471C63.679,41.471 68.529,46.321 68.529,52.294Z" style="fill:none;stroke:rgb(124,124,124);stroke-width:4.58px;"/>
        </g>
        <g transform="matrix(0.333783,0,0,0.333783,36.6768,36.7262)">
            <path d="M68.529,52.294L68.529,57.706C68.529,63.679 63.679,68.529 57.706,68.529L52.294,68.529C46.321,68.529 41.471,63.679 41.471,57.706L41.471,52.294C41.471,46.321 46.321,41.471 52.294,41.471L57.706,41.471C63.679,41.471 68.529,46.321 68.529,52.294Z" style="fill:rgb(255,0,0);stroke:rgb(124,124,124);stroke-width:5.53px;"/>
        </g>
        <g transform="matrix(3.15385,0,0,3.15385,-110.607,-97.6956)">
            <path d="M52.07,45.675L52.07,45.824C52.07,45.988 51.936,46.122 51.772,46.122L51.623,46.122C51.459,46.122 51.326,45.988 51.326,45.824L51.326,45.675C51.326,45.511 51.459,45.378 51.623,45.378L51.772,45.378C51.936,45.378 52.07,45.511 52.07,45.675Z" style="fill:rgb(124,124,124);"/>
        </g>
        <g transform="matrix(3.15385,0,0,3.15385,-99.5704,-86.5574)">
            <path d="M52.07,45.675L52.07,45.824C52.07,45.988 51.936,46.122 51.772,46.122L51.623,46.122C51.459,46.122 51.326,45.988 51.326,45.824L51.326,45.675C51.326,45.511 51.459,45.378 51.623,45.378L51.772,45.378C51.936,45.378 52.07,45.511 52.07,45.675Z" style="fill:rgb(124,124,124);"/>
        </g>
        <g transform="matrix(3.15385,0,0,3.15385,-116.453,-91.8493)">
            <path d="M52.07,45.675L52.07,45.824C52.07,45.988 51.936,46.122 51.772,46.122L51.623,46.122C51.459,46.122 51.326,45.988 51.326,45.824L51.326,45.675C51.326,45.511 51.459,45.378 51.623,45.378L51.772,45.378C51.936,45.378 52.07,45.511 52.07,45.675Z" style="fill:rgb(124,124,124);"/>
        </g>
        <g transform="matrix(3.15385,0,0,3.15385,-105.417,-80.7111)">
            <path d="M52.07,45.675L52.07,45.824C52.07,45.988 51.936,46.122 51.772,46.122L51.623,46.122C51.459,46.122 51.326,45.988 51.326,45.824L51.326,45.675C51.326,45.511 51.459,45.378 51.623,45.378L51.772,45.378C51.936,45.378 52.07,45.511 52.07,45.675Z" style="fill:rgb(124,124,124);"/>
        </g>
    </g>
</svg>
