<?xml version="1.0" encoding="UTF-8" standalone="no"?><!DOCTYPE svg PUBLIC "-//W3C//DTD SVG 1.1//EN" "http://www.w3.org/Graphics/SVG/1.1/DTD/svg11.dtd"><svg width="100%" height="100%" viewBox="0 0 556 556" version="1.1" xmlns="http://www.w3.org/2000/svg" xmlns:xlink="http://www.w3.org/1999/xlink" xml:space="preserve" xmlns:serif="http://www.serif.com/" style="fill-rule:evenodd;clip-rule:evenodd;stroke-linecap:round;stroke-linejoin:round;stroke-miterlimit:1.5;"><g id="cog"></g><g id="cog1" serif:id="cog"><path d="M179.941,269.427c4.934,-4.933 83.226,-83.226 89.18,-89.18c5.654,-5.654 14.821,-5.654 20.475,0c0.001,0.001 0.002,0.002 0.003,0.003c5.654,5.654 5.654,14.821 0,20.475c-0.691,0.691 -1.388,1.388 -2.08,2.08c-5.653,5.653 -5.653,14.82 0,20.474c0.002,0.001 0.003,0.002 0.004,0.003c5.654,5.654 14.82,5.654 20.474,0c0.501,-0.5 1.004,-1.004 1.506,-1.506c2.868,-2.867 6.756,-4.478 10.811,-4.478c4.055,0 7.944,1.611 10.811,4.478c0.004,0.004 0.008,0.008 0.012,0.012c2.867,2.867 4.478,6.756 4.478,10.811c0,4.055 -1.611,7.944 -4.478,10.811c-0.502,0.502 -1.005,1.005 -1.506,1.506c-5.654,5.654 -5.654,14.821 -0,20.475c0.001,0.001 0.002,0.002 0.003,0.003c5.654,5.654 14.821,5.654 20.475,-0c0.691,-0.692 1.388,-1.388 2.079,-2.08c5.654,-5.654 14.821,-5.654 20.475,0c0.001,0.001 0.002,0.002 0.003,0.003c5.654,5.654 5.654,14.821 0,20.475c-20.903,20.903 -68.277,68.277 -89.18,89.18c-5.654,5.654 -14.821,5.654 -20.475,0c-0.072,-0.071 -0.143,-0.143 -0.215,-0.215c-2.659,-2.659 -4.153,-6.265 -4.153,-10.025c0,-3.76 1.494,-7.367 4.153,-10.025c0.001,-0.001 0.001,-0.002 0.002,-0.003c2.659,-2.658 4.153,-6.265 4.153,-10.025c-0,-3.76 -1.494,-7.366 -4.153,-10.025c-0.142,-0.142 -0.285,-0.285 -0.427,-0.427c-2.659,-2.659 -6.265,-4.153 -10.025,-4.153c-3.761,0 -7.367,1.494 -10.026,4.153c-0,0 -0.001,0.001 -0.002,0.002c-2.659,2.659 -6.265,4.152 -10.025,4.152c-3.76,0 -7.366,-1.493 -10.025,-4.152c-0.527,-0.527 -1.057,-1.057 -1.584,-1.583c-2.658,-2.659 -4.152,-6.265 -4.152,-10.026c-0,-3.76 1.494,-7.366 4.152,-10.025c0.001,-0.001 0.002,-0.001 0.003,-0.002c2.658,-2.659 4.152,-6.265 4.152,-10.025c0,-3.76 -1.494,-7.367 -4.152,-10.025c-0.143,-0.143 -0.285,-0.285 -0.428,-0.428c-2.659,-2.659 -6.265,-4.152 -10.025,-4.152c-3.76,-0 -7.366,1.493 -10.025,4.152c-0.001,0.001 -0.002,0.002 -0.002,0.002c-2.659,2.659 -6.265,4.153 -10.026,4.153c-3.76,-0 -7.366,-1.494 -10.025,-4.153c-0.071,-0.071 -0.143,-0.143 -0.215,-0.215c-5.654,-5.654 -5.654,-14.821 0,-20.475Z" style="fill:#329e41;"/><path d="M308.354,202.645l5.633,-1.711l6.327,-0.626l6.327,0.626l6.026,1.831l5.556,2.966l4.916,4.031l0.012,0.012l4.032,4.917l2.966,5.555l1.831,6.026l0.626,6.327l-0.626,6.327l-1.712,5.634l0.325,-0.172l5.838,-1.73l5.995,-0.575l5.995,0.575l5.838,1.731l5.495,2.891l4.925,4.021l4.021,4.926l2.892,5.495l1.73,5.838l0.575,5.995l-0.575,5.994l-1.73,5.839l-2.892,5.494l-4.02,4.924l-89.18,89.18l-4.924,4.02l-5.495,2.892l-5.838,1.73l-5.995,0.575l-5.994,-0.574l-5.838,-1.731l-5.495,-2.892l-4.924,-4.02l-0.215,-0.215l-3.893,-4.747l-2.864,-5.365l-1.768,-5.818l-0.604,-6.109l0.604,-6.109l1.683,-5.538l-5.538,1.683l-6.109,0.604l-6.109,-0.604l-5.819,-1.769l-5.364,-2.864l-4.747,-3.892l-1.584,-1.583l-3.892,-4.748l-2.864,-5.364l-1.768,-5.818l-0.605,-6.11l0.605,-6.109l1.683,-5.538l-5.538,1.683l-6.11,0.605l-6.109,-0.605l-5.818,-1.768l-5.365,-2.864l-4.747,-3.892l-0.215,-0.216l-4.02,-4.923l-2.892,-5.495l-1.73,-5.838l-0.575,-5.995l0.575,-5.995l1.73,-5.838l2.892,-5.495l4.02,-4.924l89.18,-89.18l4.924,-4.02l5.495,-2.892l5.838,-1.73l5.995,-0.575l5.995,0.575l5.838,1.731l5.495,2.891l4.925,4.021l4.021,4.926l2.892,5.495l1.73,5.838l0.575,5.994l-0.575,5.995l-1.73,5.838l-0.171,0.325Zm-128.413,66.782c-5.654,5.654 -5.654,14.821 0,20.475l0.215,0.215c2.659,2.659 6.265,4.153 10.025,4.153c3.761,-0 7.368,-1.495 10.027,-4.154c2.659,-2.659 6.266,-4.153 10.026,-4.153c3.76,-0 7.366,1.493 10.025,4.152l0.428,0.428c2.658,2.658 4.152,6.265 4.152,10.025c0,3.76 -1.495,7.367 -4.154,10.026c-2.658,2.659 -4.153,6.266 -4.153,10.026c-0,3.761 1.494,7.367 4.152,10.026l1.584,1.583c2.659,2.659 6.265,4.152 10.025,4.152c3.76,0 7.367,-1.494 10.026,-4.153c2.659,-2.659 6.266,-4.154 10.027,-4.154c3.76,0 7.366,1.494 10.025,4.153l0.427,0.427c2.659,2.659 4.153,6.265 4.153,10.025c-0,3.76 -1.495,7.368 -4.154,10.027c-2.659,2.658 -4.154,6.266 -4.154,10.026c0,3.76 1.494,7.366 4.153,10.025l0.215,0.215c5.654,5.654 14.821,5.654 20.475,0l89.18,-89.18c5.654,-5.654 5.653,-14.822 -0.001,-20.476c-5.654,-5.654 -14.823,-5.656 -20.477,-0.002l-2.079,2.08c-5.654,5.654 -14.823,5.652 -20.476,-0.002c-5.654,-5.654 -5.656,-14.822 -0.002,-20.476l1.506,-1.506c2.867,-2.867 4.478,-6.756 4.478,-10.811c0,-4.055 -1.611,-7.944 -4.478,-10.811l-0.012,-0.012c-2.867,-2.867 -6.756,-4.478 -10.811,-4.478c-4.055,0 -7.943,1.611 -10.811,4.478l-1.506,1.506c-5.654,5.654 -14.822,5.653 -20.476,-0.001c-5.654,-5.654 -5.655,-14.823 -0.002,-20.476l2.08,-2.08c5.654,-5.654 5.653,-14.822 -0.001,-20.476c-5.654,-5.654 -14.823,-5.656 -20.477,-0.002l-89.18,89.18Z" style="fill:#277f34;"/><path d="M250.376,250.682l51.855,51.855" style="fill:none;stroke:#277f34;stroke-width:15.57px;"/><path d="M336.911,337.217l25.102,25.102" style="fill:none;stroke:#277f34;stroke-width:17.7px;"/></g></svg>