<?xml version="1.0" encoding="UTF-8" standalone="no"?>
<svg
   width="100%"
   height="100%"
   viewBox="0 0 417 417"
   version="1.1"
   xml:space="preserve"
   style="fill-rule:evenodd;clip-rule:evenodd;stroke-linecap:round;stroke-linejoin:round;stroke-miterlimit:1.5;"
   id="svg7"
   sodipodi:docname="pollen-5.svg"
   xmlns:inkscape="http://www.inkscape.org/namespaces/inkscape"
   xmlns:sodipodi="http://sodipodi.sourceforge.net/DTD/sodipodi-0.dtd"
   xmlns="http://www.w3.org/2000/svg"
   xmlns:svg="http://www.w3.org/2000/svg"><sodipodi:namedview
     id="namedview1"
     pagecolor="#ffffff"
     bordercolor="#000000"
     borderopacity="0.25"
     inkscape:showpageshadow="2"
     inkscape:pageopacity="0.0"
     inkscape:pagecheckerboard="0"
     inkscape:deskcolor="#d1d1d1" /><defs
     id="defs7" /><g
     id="Light5"><g
       id="g5"><path
         d="M175.279,175.595l21.937,21.937c8.876,8.877 8.876,23.29 -0,32.167l-21.937,21.937c-8.877,8.876 -23.29,8.876 -32.167,-0l-21.937,-21.937c-8.877,-8.877 -8.877,-23.29 0,-32.167l21.937,-21.937c8.877,-8.876 23.29,-8.876 32.167,0Z"
         style="fill:#ffe862;stroke:#cfbb50;stroke-width:18.75px;"
         id="path1" /><path
         d="M175.279,79.173l21.937,21.937c8.876,8.877 8.876,23.29 -0,32.167l-21.937,21.937c-8.877,8.876 -23.29,8.876 -32.167,-0l-21.937,-21.937c-8.877,-8.877 -8.877,-23.29 0,-32.167l21.937,-21.937c8.877,-8.876 23.29,-8.876 32.167,0Z"
         style="fill:#ffe862;stroke:#cfbb50;stroke-width:18.75px;"
         id="path2" /><path
         d="M273.555,177.449l21.937,21.937c8.876,8.877 8.876,23.29 -0,32.167l-21.937,21.937c-8.877,8.876 -23.29,8.876 -32.167,-0l-21.937,-21.937c-8.877,-8.877 -8.877,-23.29 0,-32.167l21.937,-21.937c8.877,-8.876 23.29,-8.876 32.167,0Z"
         style="fill:#ffe862;stroke:#cfbb50;stroke-width:18.75px;"
         id="path3" /><path
         d="M271.701,79.173l21.937,21.937c8.876,8.877 8.876,23.29 -0,32.167l-21.937,21.937c-8.877,8.876 -23.29,8.876 -32.167,-0l-21.937,-21.937c-8.877,-8.877 -8.877,-23.29 0,-32.167l21.937,-21.937c8.877,-8.876 23.29,-8.876 32.167,0Z"
         style="fill:#ffe862;stroke:#cfbb50;stroke-width:18.75px;"
         id="path4" /><path
         d="M223.49,127.384l21.937,21.937c8.876,8.877 8.876,23.29 -0,32.167l-21.937,21.937c-8.877,8.876 -23.29,8.876 -32.167,-0l-21.937,-21.937c-8.877,-8.877 -8.877,-23.29 0,-32.167l21.937,-21.937c8.877,-8.876 23.29,-8.876 32.167,0Z"
         style="fill:#ffe862;stroke:#cfbb50;stroke-width:18.75px;"
         id="path5" /></g><g
       transform="matrix(4.16667,0,0,4.16667,-47.2316,1.10165)"
       id="g7"><g
         transform="matrix(22,0,0,22,94.1156,78.1541)"
         id="g6" /><path
         d="m 33.043999,64.381999 q 2.596,0 4.026,1.078 1.43,1.056 1.43,3.476 0,2.442 -1.452,3.542 -1.43,1.078 -4.07,1.078 h -0.968 v 4.598 h -2.706 v -13.442 q 0.396,-0.088 0.88,-0.154 0.506,-0.066 1.012,-0.088 0.506,-0.044 0.99,-0.066 0.484,-0.022 0.858,-0.022 z m 0.308,2.354 q -0.242,0 -0.682,0.022 -0.418,0 -0.66,0.044 v 4.4 h 1.1 q 1.298,0 1.958,-0.506 0.66,-0.528 0.66,-1.782 0,-1.188 -0.66,-1.672 -0.638,-0.506 -1.716,-0.506 z m 16.148,6.226 q 0,1.232 -0.352,2.244 -0.352,0.99 -0.99,1.716 -0.638,0.726 -1.54,1.122 -0.88,0.396 -1.98,0.396 -1.1,0 -2.002,-0.396 -0.88,-0.396 -1.54,-1.122 -0.638,-0.726 -0.99,-1.716 -0.352,-1.012 -0.352,-2.244 0,-1.21 0.352,-2.2 0.374,-1.012 1.012,-1.716 0.66,-0.726 1.562,-1.1 0.902,-0.396 1.958,-0.396 1.078,0 1.958,0.396 0.902,0.374 1.54,1.1 0.66,0.704 1.012,1.716 0.352,0.99 0.352,2.2 z m -6.996,0.022 q 0,1.386 0.484,2.244 0.506,0.858 1.606,0.858 1.056,0 1.584,-0.858 0.55,-0.858 0.55,-2.244 0,-1.386 -0.506,-2.222 -0.484,-0.858 -1.584,-0.858 -1.056,0 -1.606,0.858 -0.528,0.836 -0.528,2.222 z m 17.886,4.73 q -0.066,0.044 -0.308,0.154 -0.22,0.11 -0.594,0.242 -0.374,0.11 -0.924,0.198 -0.528,0.088 -1.21,0.088 -1.87,0 -2.728,-1.1 -0.858,-1.122 -0.858,-3.256 v -8.778 h -2.86 v -2.244 h 5.566 v 11.22 q 0,1.056 0.418,1.43 0.418,0.374 1.056,0.374 0.814,0 1.364,-0.22 0.55,-0.22 0.726,-0.286 z m 11,0 q -0.066,0.044 -0.308,0.154 -0.22,0.11 -0.594,0.242 -0.374,0.11 -0.924,0.198 -0.528,0.088 -1.21,0.088 -1.87,0 -2.728,-1.1 -0.858,-1.122 -0.858,-3.256 v -8.778 h -2.86 v -2.244 h 5.566 v 11.22 q 0,1.056 0.418,1.43 0.418,0.374 1.056,0.374 0.814,0 1.364,-0.22 0.55,-0.22 0.726,-0.286 z m 1.408,-4.642 q 0,-1.364 0.418,-2.398 0.418,-1.034 1.1,-1.716 0.682,-0.704 1.562,-1.056 0.88,-0.352 1.804,-0.352 2.288,0 3.476,1.364 1.188,1.342 1.188,3.938 0,0.264 -0.022,0.55 0,0.286 -0.022,0.462 h -6.71 q 0,1.012 0.836,1.606 0.836,0.572 2.156,0.572 0.814,0 1.54,-0.176 0.748,-0.176 1.254,-0.352 l 0.374,2.31 q -0.704,0.242 -1.496,0.396 -0.792,0.176 -1.782,0.176 -1.32,0 -2.376,-0.33 -1.034,-0.352 -1.782,-1.012 -0.726,-0.682 -1.122,-1.672 -0.396,-0.99 -0.396,-2.31 z m 6.93,-1.078 q 0,-0.418 -0.11,-0.792 -0.11,-0.396 -0.352,-0.704 -0.242,-0.308 -0.616,-0.484 -0.374,-0.198 -0.924,-0.198 -0.528,0 -0.924,0.176 -0.374,0.176 -0.638,0.484 -0.242,0.308 -0.396,0.704 -0.132,0.396 -0.176,0.814 z m 4.774,-3.85 q 0.726,-0.198 1.782,-0.374 1.078,-0.176 2.332,-0.176 1.232,0 2.046,0.352 0.814,0.33 1.276,0.968 0.484,0.616 0.682,1.496 0.198,0.858 0.198,1.914 v 5.83 h -2.706 v -5.478 q 0,-1.452 -0.33,-2.09 -0.33,-0.638 -1.342,-0.638 -0.308,0 -0.616,0.022 -0.286,0.022 -0.616,0.066 v 8.118 h -2.706 z"
         id="text6"
         style="font-weight:700;font-size:22px;font-family:UbuntuMono-Bold, 'Ubuntu Mono', monospace;fill:#ffffff"
         aria-label="Pollen" /><path
         d="M39.462,69.735c0.252,-0.514 0.562,-0.971 0.926,-1.372c0.53,-0.584 1.163,-1.033 1.899,-1.348c0.722,-0.308 1.505,-0.465 2.351,-0.465c0.863,0 1.651,0.159 2.365,0.467c0.727,0.314 1.355,0.763 1.884,1.346c0.519,0.572 0.922,1.256 1.204,2.056c0.27,0.768 0.409,1.615 0.409,2.543c-0,0.944 -0.139,1.798 -0.409,2.565c-0.28,0.795 -0.676,1.479 -1.182,2.055c-0.522,0.594 -1.146,1.052 -1.874,1.376c-0.716,0.318 -1.514,0.482 -2.397,0.482c-0.884,0 -1.682,-0.164 -2.398,-0.482c-0.724,-0.322 -1.351,-0.779 -1.879,-1.369c-0.517,-0.579 -0.918,-1.265 -1.199,-2.062c-0.269,-0.767 -0.408,-1.621 -0.408,-2.565c-0,-0.351 0.02,-0.691 0.06,-1.019c-0.295,0.527 -0.682,0.966 -1.153,1.322c-1.099,0.831 -2.643,1.286 -4.651,1.291l-0,3.598c-0,0.552 -0.448,1 -1,1l-2.706,0c-0.553,0 -1,-0.448 -1,-1l-0,-13.442c-0,-0.469 0.325,-0.874 0.783,-0.976c0.289,-0.064 0.614,-0.121 0.975,-0.169c0.353,-0.047 0.709,-0.082 1.069,-0.106c0.344,-0.022 0.68,-0.041 1.009,-0.056c0.34,-0.015 0.641,-0.023 0.904,-0.023c1.992,0 3.526,0.447 4.624,1.266c1.179,0.88 1.832,2.292 1.832,4.288c-0,0.278 -0.013,0.544 -0.038,0.799Zm10.038,3.227c-0,-0.807 -0.118,-1.544 -0.352,-2.211c-0.235,-0.667 -0.569,-1.239 -1.001,-1.716c-0.433,-0.477 -0.946,-0.843 -1.54,-1.1c-0.594,-0.257 -1.251,-0.385 -1.969,-0.385c-0.704,0 -1.357,0.128 -1.958,0.385c-0.602,0.257 -1.119,0.623 -1.551,1.1c-0.433,0.477 -0.77,1.049 -1.012,1.716c-0.242,0.667 -0.363,1.404 -0.363,2.211c-0,0.821 0.117,1.566 0.352,2.233c0.234,0.667 0.568,1.243 1.001,1.727c0.432,0.484 0.946,0.858 1.54,1.122c0.594,0.264 1.257,0.396 1.991,0.396c0.733,0 1.397,-0.132 1.991,-0.396c0.594,-0.264 1.103,-0.638 1.529,-1.122c0.425,-0.484 0.755,-1.06 0.99,-1.727c0.234,-0.667 0.352,-1.412 0.352,-2.233Zm-6.996,0.022c-0,-0.924 0.179,-1.668 0.539,-2.233c0.359,-0.565 0.891,-0.847 1.595,-0.847c0.733,0 1.265,0.282 1.595,0.847c0.33,0.565 0.495,1.309 0.495,2.233c-0,0.924 -0.18,1.672 -0.539,2.244c-0.36,0.572 -0.891,0.858 -1.595,0.858c-0.734,0 -1.265,-0.286 -1.595,-0.858c-0.33,-0.572 -0.495,-1.32 -0.495,-2.244Zm1,0c-0,0.716 0.105,1.301 0.361,1.744c0.148,0.257 0.4,0.358 0.729,0.358c0.328,0 0.58,-0.123 0.748,-0.39c0.273,-0.435 0.386,-1.009 0.386,-1.712c-0,-0.713 -0.104,-1.293 -0.359,-1.728c-0.148,-0.254 -0.402,-0.352 -0.731,-0.352c-0.329,0 -0.584,0.12 -0.752,0.384c-0.272,0.427 -0.382,0.997 -0.382,1.696Zm-10.46,-8.602c-0.25,0 -0.536,0.007 -0.858,0.022c-0.323,0.015 -0.653,0.033 -0.99,0.055c-0.338,0.022 -0.671,0.055 -1.001,0.099c-0.33,0.044 -0.627,0.095 -0.891,0.154l-0,13.442l2.706,0l-0,-4.598l0.968,0c1.76,0 3.12,-0.363 4.081,-1.089c0.96,-0.726 1.441,-1.903 1.441,-3.531c-0,-1.613 -0.477,-2.776 -1.43,-3.487c-0.954,-0.711 -2.296,-1.067 -4.026,-1.067Zm0.308,2.354c0.718,0 1.294,0.165 1.727,0.495c0.432,0.33 0.649,0.891 0.649,1.683c-0,0.836 -0.22,1.426 -0.66,1.771c-0.44,0.345 -1.093,0.517 -1.958,0.517l-1.1,0l-0,-4.4c0.161,-0.029 0.385,-0.048 0.671,-0.055c0.286,-0.007 0.509,-0.011 0.671,-0.011Zm-0.342,1.004l-0,2.462l0.1,0c0.587,0 1.042,-0.07 1.341,-0.304c0.238,-0.186 0.277,-0.532 0.277,-0.984c-0,-0.406 -0.034,-0.719 -0.256,-0.888c-0.279,-0.212 -0.657,-0.29 -1.12,-0.29c-0.093,0 -0.207,0.001 -0.342,0.004Zm24.565,7.197c0.099,0.079 0.226,0.105 0.373,0.105c0.394,0 0.726,-0.042 0.992,-0.148c0.377,-0.151 0.626,-0.249 0.746,-0.294c0.281,-0.105 0.594,-0.079 0.854,0.071c0.259,0.151 0.437,0.41 0.485,0.706l0.352,2.178c0.062,0.386 -0.107,0.774 -0.433,0.991c-0.063,0.042 -0.201,0.12 -0.421,0.225c-0.186,0.088 -0.428,0.183 -0.728,0.28c-0.289,0.093 -0.642,0.176 -1.059,0.244c-0.407,0.066 -0.868,0.101 -1.382,0.101c-1.62,0 -2.777,-0.538 -3.52,-1.5c-0.682,-0.883 -1.066,-2.16 -1.066,-3.856l-0,-7.778l-1.86,0c-0.553,0 -1,-0.448 -1,-1l-0,-2.244c-0,-0.552 0.447,-1 1,-1l5.566,0c0.552,0 1,0.448 1,1l-0,11.22c-0,0.202 0.013,0.378 0.044,0.527c0.013,0.061 0.048,0.148 0.057,0.172Zm2.815,2.777l-0.352,-2.178c-0.118,0.044 -0.36,0.139 -0.726,0.286c-0.367,0.147 -0.822,0.22 -1.364,0.22c-0.426,0 -0.778,-0.125 -1.056,-0.374c-0.279,-0.249 -0.418,-0.726 -0.418,-1.43l-0,-11.22l-5.566,0l-0,2.244l2.86,0l-0,8.778c-0,1.423 0.286,2.504 0.858,3.245c0.572,0.741 1.481,1.111 2.728,1.111c0.454,0 0.861,-0.029 1.221,-0.088c0.359,-0.059 0.663,-0.128 0.913,-0.209c0.249,-0.081 0.451,-0.158 0.605,-0.231c0.154,-0.073 0.253,-0.125 0.297,-0.154Zm8.185,-2.777c0.099,0.079 0.226,0.105 0.373,0.105c0.394,0 0.726,-0.042 0.992,-0.148c0.377,-0.151 0.626,-0.249 0.746,-0.294c0.281,-0.105 0.594,-0.079 0.854,0.071c0.259,0.151 0.437,0.41 0.485,0.706l0.352,2.178c0.062,0.386 -0.107,0.774 -0.433,0.991c-0.063,0.042 -0.201,0.12 -0.421,0.225c-0.186,0.088 -0.428,0.183 -0.728,0.28c-0.289,0.093 -0.642,0.176 -1.059,0.244c-0.407,0.066 -0.868,0.101 -1.382,0.101c-1.62,0 -2.777,-0.538 -3.52,-1.5c-0.682,-0.883 -1.066,-2.16 -1.066,-3.856l-0,-7.778l-1.86,0c-0.553,0 -1,-0.448 -1,-1l-0,-2.244c-0,-0.552 0.447,-1 1,-1l5.566,0c0.552,0 1,0.448 1,1l-0,11.22c-0,0.202 0.013,0.378 0.044,0.527c0.013,0.061 0.048,0.148 0.057,0.172Zm2.815,2.777l-0.352,-2.178c-0.118,0.044 -0.36,0.139 -0.726,0.286c-0.367,0.147 -0.822,0.22 -1.364,0.22c-0.426,0 -0.778,-0.125 -1.056,-0.374c-0.279,-0.249 -0.418,-0.726 -0.418,-1.43l-0,-11.22l-5.566,0l-0,2.244l2.86,0l-0,8.778c-0,1.423 0.286,2.504 0.858,3.245c0.572,0.741 1.481,1.111 2.728,1.111c0.454,0 0.861,-0.029 1.221,-0.088c0.359,-0.059 0.663,-0.128 0.913,-0.209c0.249,-0.081 0.451,-0.158 0.605,-0.231c0.154,-0.073 0.253,-0.125 0.297,-0.154Zm10.748,-2.85c0.117,0.138 0.197,0.307 0.227,0.49l0.374,2.31c0.078,0.481 -0.202,0.948 -0.662,1.106c-0.508,0.174 -1.047,0.321 -1.617,0.44c-0.589,0.123 -1.251,0.186 -1.986,0.186c-0.996,0 -1.887,-0.133 -2.676,-0.39c-0.839,-0.274 -1.553,-0.684 -2.145,-1.223c-0.6,-0.547 -1.065,-1.222 -1.388,-2.03c-0.306,-0.766 -0.467,-1.659 -0.467,-2.681c-0,-1.052 0.168,-1.975 0.49,-2.773c0.332,-0.821 0.773,-1.503 1.315,-2.053c0.554,-0.563 1.189,-0.987 1.903,-1.272c0.708,-0.283 1.433,-0.424 2.176,-0.424c1.862,0 3.26,0.592 4.227,1.693c0.927,1.056 1.437,2.583 1.437,4.609c-0,0.188 -0.004,0.385 -0.012,0.589c-0.009,0.226 -0.023,0.408 -0.04,0.547c-0.063,0.501 -0.488,0.876 -0.992,0.876l-0.164,0Zm-2.114,0l-2.591,0c0.33,0.124 0.714,0.178 1.151,0.178c0.461,0 0.901,-0.049 1.318,-0.149l0.122,-0.029Zm-7.226,-1.792c-0,0.88 0.132,1.65 0.396,2.31c0.264,0.66 0.641,1.214 1.133,1.661c0.491,0.447 1.085,0.785 1.782,1.012c0.696,0.227 1.485,0.341 2.365,0.341c0.66,0 1.254,-0.055 1.782,-0.165c0.528,-0.11 1.026,-0.246 1.496,-0.407l-0.374,-2.31c-0.338,0.117 -0.752,0.235 -1.243,0.352c-0.492,0.117 -1.009,0.176 -1.551,0.176c-0.88,0 -1.599,-0.194 -2.156,-0.583c-0.558,-0.389 -0.836,-0.92 -0.836,-1.595l6.71,0c0.014,-0.117 0.025,-0.271 0.033,-0.462c0.007,-0.191 0.011,-0.374 0.011,-0.55c-0,-1.731 -0.396,-3.047 -1.188,-3.949c-0.792,-0.902 -1.951,-1.353 -3.476,-1.353c-0.616,0 -1.218,0.117 -1.804,0.352c-0.587,0.235 -1.108,0.583 -1.562,1.045c-0.455,0.462 -0.822,1.038 -1.1,1.727c-0.279,0.689 -0.418,1.489 -0.418,2.398Zm6.93,-1.078l-4.136,0c0.029,-0.279 0.091,-0.55 0.187,-0.814c0.095,-0.264 0.227,-0.499 0.396,-0.704c0.168,-0.205 0.381,-0.367 0.638,-0.484c0.256,-0.117 0.561,-0.176 0.913,-0.176c0.366,0 0.674,0.062 0.924,0.187c0.249,0.125 0.454,0.29 0.616,0.495c0.161,0.205 0.278,0.436 0.352,0.693c0.073,0.257 0.11,0.524 0.11,0.803Zm-2.658,-1l1.287,0c-0.047,-0.036 -0.099,-0.068 -0.155,-0.096c-0.128,-0.064 -0.288,-0.082 -0.476,-0.082c-0.191,0 -0.358,0.022 -0.498,0.086c-0.057,0.026 -0.11,0.056 -0.158,0.092Zm11.138,-0.042l-0,7.202c-0,0.552 -0.448,1 -1,1l-2.706,0c-0.553,0 -1,-0.448 -1,-1l-0,-10.01c-0,-0.451 0.301,-0.846 0.736,-0.965c0.512,-0.139 1.143,-0.272 1.894,-0.396c0.761,-0.125 1.589,-0.189 2.484,-0.189c0.977,0 1.786,0.148 2.432,0.419c0.718,0.301 1.281,0.734 1.699,1.288c0.396,0.525 0.682,1.149 0.848,1.876c0.147,0.646 0.223,1.362 0.223,2.147l-0,5.83c-0,0.552 -0.448,1 -1,1l-2.706,0c-0.553,0 -1,-0.448 -1,-1l-0,-5.478c-0,-0.753 -0.048,-1.3 -0.219,-1.63c-0.024,-0.047 -0.079,-0.053 -0.138,-0.067c-0.093,-0.023 -0.199,-0.031 -0.315,-0.031c-0.078,0 -0.156,0.001 -0.232,0.004Zm-3.706,-2.808l-0,10.01l2.706,0l-0,-8.118c0.22,-0.029 0.429,-0.051 0.627,-0.066c0.198,-0.015 0.399,-0.022 0.605,-0.022c0.674,0 1.122,0.213 1.342,0.638c0.22,0.425 0.33,1.122 0.33,2.09l-0,5.478l2.706,0l-0,-5.83c-0,-0.704 -0.066,-1.346 -0.198,-1.925c-0.132,-0.579 -0.356,-1.078 -0.671,-1.496c-0.316,-0.418 -0.745,-0.741 -1.287,-0.968c-0.543,-0.227 -1.225,-0.341 -2.046,-0.341c-0.836,0 -1.61,0.059 -2.321,0.176c-0.712,0.117 -1.309,0.242 -1.793,0.374Z"
         id="path6" /></g></g></svg>
